<?xml version="1.0" encoding="utf-8" standalone="no"?>
<!DOCTYPE svg PUBLIC "-//W3C//DTD SVG 1.1//EN"
  "http://www.w3.org/Graphics/SVG/1.1/DTD/svg11.dtd">
<!-- Created with matplotlib (https://matplotlib.org/) -->
<svg height="720pt" version="1.1" viewBox="0 0 1080 720" width="1080pt" xmlns="http://www.w3.org/2000/svg" xmlns:xlink="http://www.w3.org/1999/xlink">
 <defs>
  <style type="text/css">
*{stroke-linecap:butt;stroke-linejoin:round;}
  </style>
 </defs>
 <g id="figure_1">
  <g id="patch_1">
   <path d="M 0 720 
L 1080 720 
L 1080 0 
L 0 0 
z
" style="fill:#ffffff;"/>
  </g>
  <g id="axes_1">
   <g id="patch_2">
    <path d="M 135 333.490909 
L 972 333.490909 
L 972 86.4 
L 135 86.4 
z
" style="fill:#ffffff;"/>
   </g>
   <g id="matplotlib.axis_1">
    <g id="xtick_1">
     <g id="line2d_1">
      <path clip-path="url(#p06e8a374e3)" d="M 173.045455 333.490909 
L 173.045455 86.4 
" style="fill:none;stroke:#b0b0b0;stroke-linecap:square;stroke-width:0.8;"/>
     </g>
     <g id="line2d_2">
      <defs>
       <path d="M 0 0 
L 0 3.5 
" id="mdebdb8b419" style="stroke:#000000;stroke-width:0.8;"/>
      </defs>
      <g>
       <use style="stroke:#000000;stroke-width:0.8;" x="173.045455" xlink:href="#mdebdb8b419" y="333.490909"/>
      </g>
     </g>
     <g id="text_1">
      <!-- 0 -->
      <defs>
       <path d="M 31.78125 66.40625 
Q 24.171875 66.40625 20.328125 58.90625 
Q 16.5 51.421875 16.5 36.375 
Q 16.5 21.390625 20.328125 13.890625 
Q 24.171875 6.390625 31.78125 6.390625 
Q 39.453125 6.390625 43.28125 13.890625 
Q 47.125 21.390625 47.125 36.375 
Q 47.125 51.421875 43.28125 58.90625 
Q 39.453125 66.40625 31.78125 66.40625 
z
M 31.78125 74.21875 
Q 44.046875 74.21875 50.515625 64.515625 
Q 56.984375 54.828125 56.984375 36.375 
Q 56.984375 17.96875 50.515625 8.265625 
Q 44.046875 -1.421875 31.78125 -1.421875 
Q 19.53125 -1.421875 13.0625 8.265625 
Q 6.59375 17.96875 6.59375 36.375 
Q 6.59375 54.828125 13.0625 64.515625 
Q 19.53125 74.21875 31.78125 74.21875 
z
" id="DejaVuSans-48"/>
      </defs>
      <g transform="translate(169.864205 348.089347)scale(0.1 -0.1)">
       <use xlink:href="#DejaVuSans-48"/>
      </g>
     </g>
    </g>
    <g id="xtick_2">
     <g id="line2d_3">
      <path clip-path="url(#p06e8a374e3)" d="M 325.0079 333.490909 
L 325.0079 86.4 
" style="fill:none;stroke:#b0b0b0;stroke-linecap:square;stroke-width:0.8;"/>
     </g>
     <g id="line2d_4">
      <g>
       <use style="stroke:#000000;stroke-width:0.8;" x="325.0079" xlink:href="#mdebdb8b419" y="333.490909"/>
      </g>
     </g>
     <g id="text_2">
      <!-- 50 -->
      <defs>
       <path d="M 10.796875 72.90625 
L 49.515625 72.90625 
L 49.515625 64.59375 
L 19.828125 64.59375 
L 19.828125 46.734375 
Q 21.96875 47.46875 24.109375 47.828125 
Q 26.265625 48.1875 28.421875 48.1875 
Q 40.625 48.1875 47.75 41.5 
Q 54.890625 34.8125 54.890625 23.390625 
Q 54.890625 11.625 47.5625 5.09375 
Q 40.234375 -1.421875 26.90625 -1.421875 
Q 22.3125 -1.421875 17.546875 -0.640625 
Q 12.796875 0.140625 7.71875 1.703125 
L 7.71875 11.625 
Q 12.109375 9.234375 16.796875 8.0625 
Q 21.484375 6.890625 26.703125 6.890625 
Q 35.15625 6.890625 40.078125 11.328125 
Q 45.015625 15.765625 45.015625 23.390625 
Q 45.015625 31 40.078125 35.4375 
Q 35.15625 39.890625 26.703125 39.890625 
Q 22.75 39.890625 18.8125 39.015625 
Q 14.890625 38.140625 10.796875 36.28125 
z
" id="DejaVuSans-53"/>
      </defs>
      <g transform="translate(318.6454 348.089347)scale(0.1 -0.1)">
       <use xlink:href="#DejaVuSans-53"/>
       <use x="63.623047" xlink:href="#DejaVuSans-48"/>
      </g>
     </g>
    </g>
    <g id="xtick_3">
     <g id="line2d_5">
      <path clip-path="url(#p06e8a374e3)" d="M 476.970345 333.490909 
L 476.970345 86.4 
" style="fill:none;stroke:#b0b0b0;stroke-linecap:square;stroke-width:0.8;"/>
     </g>
     <g id="line2d_6">
      <g>
       <use style="stroke:#000000;stroke-width:0.8;" x="476.970345" xlink:href="#mdebdb8b419" y="333.490909"/>
      </g>
     </g>
     <g id="text_3">
      <!-- 100 -->
      <defs>
       <path d="M 12.40625 8.296875 
L 28.515625 8.296875 
L 28.515625 63.921875 
L 10.984375 60.40625 
L 10.984375 69.390625 
L 28.421875 72.90625 
L 38.28125 72.90625 
L 38.28125 8.296875 
L 54.390625 8.296875 
L 54.390625 0 
L 12.40625 0 
z
" id="DejaVuSans-49"/>
      </defs>
      <g transform="translate(467.426595 348.089347)scale(0.1 -0.1)">
       <use xlink:href="#DejaVuSans-49"/>
       <use x="63.623047" xlink:href="#DejaVuSans-48"/>
       <use x="127.246094" xlink:href="#DejaVuSans-48"/>
      </g>
     </g>
    </g>
    <g id="xtick_4">
     <g id="line2d_7">
      <path clip-path="url(#p06e8a374e3)" d="M 628.93279 333.490909 
L 628.93279 86.4 
" style="fill:none;stroke:#b0b0b0;stroke-linecap:square;stroke-width:0.8;"/>
     </g>
     <g id="line2d_8">
      <g>
       <use style="stroke:#000000;stroke-width:0.8;" x="628.93279" xlink:href="#mdebdb8b419" y="333.490909"/>
      </g>
     </g>
     <g id="text_4">
      <!-- 150 -->
      <g transform="translate(619.38904 348.089347)scale(0.1 -0.1)">
       <use xlink:href="#DejaVuSans-49"/>
       <use x="63.623047" xlink:href="#DejaVuSans-53"/>
       <use x="127.246094" xlink:href="#DejaVuSans-48"/>
      </g>
     </g>
    </g>
    <g id="xtick_5">
     <g id="line2d_9">
      <path clip-path="url(#p06e8a374e3)" d="M 780.895235 333.490909 
L 780.895235 86.4 
" style="fill:none;stroke:#b0b0b0;stroke-linecap:square;stroke-width:0.8;"/>
     </g>
     <g id="line2d_10">
      <g>
       <use style="stroke:#000000;stroke-width:0.8;" x="780.895235" xlink:href="#mdebdb8b419" y="333.490909"/>
      </g>
     </g>
     <g id="text_5">
      <!-- 200 -->
      <defs>
       <path d="M 19.1875 8.296875 
L 53.609375 8.296875 
L 53.609375 0 
L 7.328125 0 
L 7.328125 8.296875 
Q 12.9375 14.109375 22.625 23.890625 
Q 32.328125 33.6875 34.8125 36.53125 
Q 39.546875 41.84375 41.421875 45.53125 
Q 43.3125 49.21875 43.3125 52.78125 
Q 43.3125 58.59375 39.234375 62.25 
Q 35.15625 65.921875 28.609375 65.921875 
Q 23.96875 65.921875 18.8125 64.3125 
Q 13.671875 62.703125 7.8125 59.421875 
L 7.8125 69.390625 
Q 13.765625 71.78125 18.9375 73 
Q 24.125 74.21875 28.421875 74.21875 
Q 39.75 74.21875 46.484375 68.546875 
Q 53.21875 62.890625 53.21875 53.421875 
Q 53.21875 48.921875 51.53125 44.890625 
Q 49.859375 40.875 45.40625 35.40625 
Q 44.1875 33.984375 37.640625 27.21875 
Q 31.109375 20.453125 19.1875 8.296875 
z
" id="DejaVuSans-50"/>
      </defs>
      <g transform="translate(771.351485 348.089347)scale(0.1 -0.1)">
       <use xlink:href="#DejaVuSans-50"/>
       <use x="63.623047" xlink:href="#DejaVuSans-48"/>
       <use x="127.246094" xlink:href="#DejaVuSans-48"/>
      </g>
     </g>
    </g>
    <g id="xtick_6">
     <g id="line2d_11">
      <path clip-path="url(#p06e8a374e3)" d="M 932.857681 333.490909 
L 932.857681 86.4 
" style="fill:none;stroke:#b0b0b0;stroke-linecap:square;stroke-width:0.8;"/>
     </g>
     <g id="line2d_12">
      <g>
       <use style="stroke:#000000;stroke-width:0.8;" x="932.857681" xlink:href="#mdebdb8b419" y="333.490909"/>
      </g>
     </g>
     <g id="text_6">
      <!-- 250 -->
      <g transform="translate(923.313931 348.089347)scale(0.1 -0.1)">
       <use xlink:href="#DejaVuSans-50"/>
       <use x="63.623047" xlink:href="#DejaVuSans-53"/>
       <use x="127.246094" xlink:href="#DejaVuSans-48"/>
      </g>
     </g>
    </g>
    <g id="text_7">
     <!-- time -->
     <defs>
      <path d="M 18.3125 70.21875 
L 18.3125 54.6875 
L 36.8125 54.6875 
L 36.8125 47.703125 
L 18.3125 47.703125 
L 18.3125 18.015625 
Q 18.3125 11.328125 20.140625 9.421875 
Q 21.96875 7.515625 27.59375 7.515625 
L 36.8125 7.515625 
L 36.8125 0 
L 27.59375 0 
Q 17.1875 0 13.234375 3.875 
Q 9.28125 7.765625 9.28125 18.015625 
L 9.28125 47.703125 
L 2.6875 47.703125 
L 2.6875 54.6875 
L 9.28125 54.6875 
L 9.28125 70.21875 
z
" id="DejaVuSans-116"/>
      <path d="M 9.421875 54.6875 
L 18.40625 54.6875 
L 18.40625 0 
L 9.421875 0 
z
M 9.421875 75.984375 
L 18.40625 75.984375 
L 18.40625 64.59375 
L 9.421875 64.59375 
z
" id="DejaVuSans-105"/>
      <path d="M 52 44.1875 
Q 55.375 50.25 60.0625 53.125 
Q 64.75 56 71.09375 56 
Q 79.640625 56 84.28125 50.015625 
Q 88.921875 44.046875 88.921875 33.015625 
L 88.921875 0 
L 79.890625 0 
L 79.890625 32.71875 
Q 79.890625 40.578125 77.09375 44.375 
Q 74.3125 48.1875 68.609375 48.1875 
Q 61.625 48.1875 57.5625 43.546875 
Q 53.515625 38.921875 53.515625 30.90625 
L 53.515625 0 
L 44.484375 0 
L 44.484375 32.71875 
Q 44.484375 40.625 41.703125 44.40625 
Q 38.921875 48.1875 33.109375 48.1875 
Q 26.21875 48.1875 22.15625 43.53125 
Q 18.109375 38.875 18.109375 30.90625 
L 18.109375 0 
L 9.078125 0 
L 9.078125 54.6875 
L 18.109375 54.6875 
L 18.109375 46.1875 
Q 21.1875 51.21875 25.484375 53.609375 
Q 29.78125 56 35.6875 56 
Q 41.65625 56 45.828125 52.96875 
Q 50 49.953125 52 44.1875 
z
" id="DejaVuSans-109"/>
      <path d="M 56.203125 29.59375 
L 56.203125 25.203125 
L 14.890625 25.203125 
Q 15.484375 15.921875 20.484375 11.0625 
Q 25.484375 6.203125 34.421875 6.203125 
Q 39.59375 6.203125 44.453125 7.46875 
Q 49.3125 8.734375 54.109375 11.28125 
L 54.109375 2.78125 
Q 49.265625 0.734375 44.1875 -0.34375 
Q 39.109375 -1.421875 33.890625 -1.421875 
Q 20.796875 -1.421875 13.15625 6.1875 
Q 5.515625 13.8125 5.515625 26.8125 
Q 5.515625 40.234375 12.765625 48.109375 
Q 20.015625 56 32.328125 56 
Q 43.359375 56 49.78125 48.890625 
Q 56.203125 41.796875 56.203125 29.59375 
z
M 47.21875 32.234375 
Q 47.125 39.59375 43.09375 43.984375 
Q 39.0625 48.390625 32.421875 48.390625 
Q 24.90625 48.390625 20.390625 44.140625 
Q 15.875 39.890625 15.1875 32.171875 
z
" id="DejaVuSans-101"/>
     </defs>
     <g transform="translate(535.42625 366.326534)scale(0.16 -0.16)">
      <use xlink:href="#DejaVuSans-116"/>
      <use x="39.208984" xlink:href="#DejaVuSans-105"/>
      <use x="66.992188" xlink:href="#DejaVuSans-109"/>
      <use x="164.404297" xlink:href="#DejaVuSans-101"/>
     </g>
    </g>
   </g>
   <g id="matplotlib.axis_2">
    <g id="ytick_1">
     <g id="line2d_13">
      <path clip-path="url(#p06e8a374e3)" d="M 135 332.95608 
L 972 332.95608 
" style="fill:none;stroke:#b0b0b0;stroke-linecap:square;stroke-width:0.8;"/>
     </g>
     <g id="line2d_14">
      <defs>
       <path d="M 0 0 
L -3.5 0 
" id="m24da366e21" style="stroke:#000000;stroke-width:0.8;"/>
      </defs>
      <g>
       <use style="stroke:#000000;stroke-width:0.8;" x="135" xlink:href="#m24da366e21" y="332.95608"/>
      </g>
     </g>
     <g id="text_8">
      <!-- 30 -->
      <defs>
       <path d="M 40.578125 39.3125 
Q 47.65625 37.796875 51.625 33 
Q 55.609375 28.21875 55.609375 21.1875 
Q 55.609375 10.40625 48.1875 4.484375 
Q 40.765625 -1.421875 27.09375 -1.421875 
Q 22.515625 -1.421875 17.65625 -0.515625 
Q 12.796875 0.390625 7.625 2.203125 
L 7.625 11.71875 
Q 11.71875 9.328125 16.59375 8.109375 
Q 21.484375 6.890625 26.8125 6.890625 
Q 36.078125 6.890625 40.9375 10.546875 
Q 45.796875 14.203125 45.796875 21.1875 
Q 45.796875 27.640625 41.28125 31.265625 
Q 36.765625 34.90625 28.71875 34.90625 
L 20.21875 34.90625 
L 20.21875 43.015625 
L 29.109375 43.015625 
Q 36.375 43.015625 40.234375 45.921875 
Q 44.09375 48.828125 44.09375 54.296875 
Q 44.09375 59.90625 40.109375 62.90625 
Q 36.140625 65.921875 28.71875 65.921875 
Q 24.65625 65.921875 20.015625 65.03125 
Q 15.375 64.15625 9.8125 62.3125 
L 9.8125 71.09375 
Q 15.4375 72.65625 20.34375 73.4375 
Q 25.25 74.21875 29.59375 74.21875 
Q 40.828125 74.21875 47.359375 69.109375 
Q 53.90625 64.015625 53.90625 55.328125 
Q 53.90625 49.265625 50.4375 45.09375 
Q 46.96875 40.921875 40.578125 39.3125 
z
" id="DejaVuSans-51"/>
      </defs>
      <g transform="translate(115.275 336.755299)scale(0.1 -0.1)">
       <use xlink:href="#DejaVuSans-51"/>
       <use x="63.623047" xlink:href="#DejaVuSans-48"/>
      </g>
     </g>
    </g>
    <g id="ytick_2">
     <g id="line2d_15">
      <path clip-path="url(#p06e8a374e3)" d="M 135 279.4732 
L 972 279.4732 
" style="fill:none;stroke:#b0b0b0;stroke-linecap:square;stroke-width:0.8;"/>
     </g>
     <g id="line2d_16">
      <g>
       <use style="stroke:#000000;stroke-width:0.8;" x="135" xlink:href="#m24da366e21" y="279.4732"/>
      </g>
     </g>
     <g id="text_9">
      <!-- 40 -->
      <defs>
       <path d="M 37.796875 64.3125 
L 12.890625 25.390625 
L 37.796875 25.390625 
z
M 35.203125 72.90625 
L 47.609375 72.90625 
L 47.609375 25.390625 
L 58.015625 25.390625 
L 58.015625 17.1875 
L 47.609375 17.1875 
L 47.609375 0 
L 37.796875 0 
L 37.796875 17.1875 
L 4.890625 17.1875 
L 4.890625 26.703125 
z
" id="DejaVuSans-52"/>
      </defs>
      <g transform="translate(115.275 283.272418)scale(0.1 -0.1)">
       <use xlink:href="#DejaVuSans-52"/>
       <use x="63.623047" xlink:href="#DejaVuSans-48"/>
      </g>
     </g>
    </g>
    <g id="ytick_3">
     <g id="line2d_17">
      <path clip-path="url(#p06e8a374e3)" d="M 135 225.990319 
L 972 225.990319 
" style="fill:none;stroke:#b0b0b0;stroke-linecap:square;stroke-width:0.8;"/>
     </g>
     <g id="line2d_18">
      <g>
       <use style="stroke:#000000;stroke-width:0.8;" x="135" xlink:href="#m24da366e21" y="225.990319"/>
      </g>
     </g>
     <g id="text_10">
      <!-- 50 -->
      <g transform="translate(115.275 229.789538)scale(0.1 -0.1)">
       <use xlink:href="#DejaVuSans-53"/>
       <use x="63.623047" xlink:href="#DejaVuSans-48"/>
      </g>
     </g>
    </g>
    <g id="ytick_4">
     <g id="line2d_19">
      <path clip-path="url(#p06e8a374e3)" d="M 135 172.507438 
L 972 172.507438 
" style="fill:none;stroke:#b0b0b0;stroke-linecap:square;stroke-width:0.8;"/>
     </g>
     <g id="line2d_20">
      <g>
       <use style="stroke:#000000;stroke-width:0.8;" x="135" xlink:href="#m24da366e21" y="172.507438"/>
      </g>
     </g>
     <g id="text_11">
      <!-- 60 -->
      <defs>
       <path d="M 33.015625 40.375 
Q 26.375 40.375 22.484375 35.828125 
Q 18.609375 31.296875 18.609375 23.390625 
Q 18.609375 15.53125 22.484375 10.953125 
Q 26.375 6.390625 33.015625 6.390625 
Q 39.65625 6.390625 43.53125 10.953125 
Q 47.40625 15.53125 47.40625 23.390625 
Q 47.40625 31.296875 43.53125 35.828125 
Q 39.65625 40.375 33.015625 40.375 
z
M 52.59375 71.296875 
L 52.59375 62.3125 
Q 48.875 64.0625 45.09375 64.984375 
Q 41.3125 65.921875 37.59375 65.921875 
Q 27.828125 65.921875 22.671875 59.328125 
Q 17.53125 52.734375 16.796875 39.40625 
Q 19.671875 43.65625 24.015625 45.921875 
Q 28.375 48.1875 33.59375 48.1875 
Q 44.578125 48.1875 50.953125 41.515625 
Q 57.328125 34.859375 57.328125 23.390625 
Q 57.328125 12.15625 50.6875 5.359375 
Q 44.046875 -1.421875 33.015625 -1.421875 
Q 20.359375 -1.421875 13.671875 8.265625 
Q 6.984375 17.96875 6.984375 36.375 
Q 6.984375 53.65625 15.1875 63.9375 
Q 23.390625 74.21875 37.203125 74.21875 
Q 40.921875 74.21875 44.703125 73.484375 
Q 48.484375 72.75 52.59375 71.296875 
z
" id="DejaVuSans-54"/>
      </defs>
      <g transform="translate(115.275 176.306657)scale(0.1 -0.1)">
       <use xlink:href="#DejaVuSans-54"/>
       <use x="63.623047" xlink:href="#DejaVuSans-48"/>
      </g>
     </g>
    </g>
    <g id="ytick_5">
     <g id="line2d_21">
      <path clip-path="url(#p06e8a374e3)" d="M 135 119.024557 
L 972 119.024557 
" style="fill:none;stroke:#b0b0b0;stroke-linecap:square;stroke-width:0.8;"/>
     </g>
     <g id="line2d_22">
      <g>
       <use style="stroke:#000000;stroke-width:0.8;" x="135" xlink:href="#m24da366e21" y="119.024557"/>
      </g>
     </g>
     <g id="text_12">
      <!-- 70 -->
      <defs>
       <path d="M 8.203125 72.90625 
L 55.078125 72.90625 
L 55.078125 68.703125 
L 28.609375 0 
L 18.3125 0 
L 43.21875 64.59375 
L 8.203125 64.59375 
z
" id="DejaVuSans-55"/>
      </defs>
      <g transform="translate(115.275 122.823776)scale(0.1 -0.1)">
       <use xlink:href="#DejaVuSans-55"/>
       <use x="63.623047" xlink:href="#DejaVuSans-48"/>
      </g>
     </g>
    </g>
    <g id="text_13">
     <!-- celcius -->
     <defs>
      <path d="M 48.78125 52.59375 
L 48.78125 44.1875 
Q 44.96875 46.296875 41.140625 47.34375 
Q 37.3125 48.390625 33.40625 48.390625 
Q 24.65625 48.390625 19.8125 42.84375 
Q 14.984375 37.3125 14.984375 27.296875 
Q 14.984375 17.28125 19.8125 11.734375 
Q 24.65625 6.203125 33.40625 6.203125 
Q 37.3125 6.203125 41.140625 7.25 
Q 44.96875 8.296875 48.78125 10.40625 
L 48.78125 2.09375 
Q 45.015625 0.34375 40.984375 -0.53125 
Q 36.96875 -1.421875 32.421875 -1.421875 
Q 20.0625 -1.421875 12.78125 6.34375 
Q 5.515625 14.109375 5.515625 27.296875 
Q 5.515625 40.671875 12.859375 48.328125 
Q 20.21875 56 33.015625 56 
Q 37.15625 56 41.109375 55.140625 
Q 45.0625 54.296875 48.78125 52.59375 
z
" id="DejaVuSans-99"/>
      <path d="M 9.421875 75.984375 
L 18.40625 75.984375 
L 18.40625 0 
L 9.421875 0 
z
" id="DejaVuSans-108"/>
      <path d="M 8.5 21.578125 
L 8.5 54.6875 
L 17.484375 54.6875 
L 17.484375 21.921875 
Q 17.484375 14.15625 20.5 10.265625 
Q 23.53125 6.390625 29.59375 6.390625 
Q 36.859375 6.390625 41.078125 11.03125 
Q 45.3125 15.671875 45.3125 23.6875 
L 45.3125 54.6875 
L 54.296875 54.6875 
L 54.296875 0 
L 45.3125 0 
L 45.3125 8.40625 
Q 42.046875 3.421875 37.71875 1 
Q 33.40625 -1.421875 27.6875 -1.421875 
Q 18.265625 -1.421875 13.375 4.4375 
Q 8.5 10.296875 8.5 21.578125 
z
M 31.109375 56 
z
" id="DejaVuSans-117"/>
      <path d="M 44.28125 53.078125 
L 44.28125 44.578125 
Q 40.484375 46.53125 36.375 47.5 
Q 32.28125 48.484375 27.875 48.484375 
Q 21.1875 48.484375 17.84375 46.4375 
Q 14.5 44.390625 14.5 40.28125 
Q 14.5 37.15625 16.890625 35.375 
Q 19.28125 33.59375 26.515625 31.984375 
L 29.59375 31.296875 
Q 39.15625 29.25 43.1875 25.515625 
Q 47.21875 21.78125 47.21875 15.09375 
Q 47.21875 7.46875 41.1875 3.015625 
Q 35.15625 -1.421875 24.609375 -1.421875 
Q 20.21875 -1.421875 15.453125 -0.5625 
Q 10.6875 0.296875 5.421875 2 
L 5.421875 11.28125 
Q 10.40625 8.6875 15.234375 7.390625 
Q 20.0625 6.109375 24.8125 6.109375 
Q 31.15625 6.109375 34.5625 8.28125 
Q 37.984375 10.453125 37.984375 14.40625 
Q 37.984375 18.0625 35.515625 20.015625 
Q 33.0625 21.96875 24.703125 23.78125 
L 21.578125 24.515625 
Q 13.234375 26.265625 9.515625 29.90625 
Q 5.8125 33.546875 5.8125 39.890625 
Q 5.8125 47.609375 11.28125 51.796875 
Q 16.75 56 26.8125 56 
Q 31.78125 56 36.171875 55.265625 
Q 40.578125 54.546875 44.28125 53.078125 
z
" id="DejaVuSans-115"/>
     </defs>
     <g transform="translate(107.9475 237.347955)rotate(-90)scale(0.16 -0.16)">
      <use xlink:href="#DejaVuSans-99"/>
      <use x="54.980469" xlink:href="#DejaVuSans-101"/>
      <use x="116.503906" xlink:href="#DejaVuSans-108"/>
      <use x="144.287109" xlink:href="#DejaVuSans-99"/>
      <use x="199.267578" xlink:href="#DejaVuSans-105"/>
      <use x="227.050781" xlink:href="#DejaVuSans-117"/>
      <use x="290.429688" xlink:href="#DejaVuSans-115"/>
     </g>
    </g>
   </g>
   <g id="line2d_23">
    <path clip-path="url(#p06e8a374e3)" d="M 173.045455 322.259504 
L 176.13941 290.169776 
L 182.260457 268.776623 
L 185.330099 263.428335 
L 188.381505 263.428335 
L 194.545101 252.731759 
L 197.672488 252.731759 
L 200.793797 247.383471 
L 203.893831 247.383471 
L 206.954355 242.035183 
L 210.042231 242.035183 
L 213.120991 236.686895 
L 219.269391 236.686895 
L 225.408674 225.990319 
L 228.511747 225.990319 
L 231.584428 220.642031 
L 234.69054 220.642031 
L 237.769299 215.293743 
L 243.87819 215.293743 
L 246.972145 209.945455 
L 253.129663 209.945455 
L 256.171951 204.597166 
L 259.232475 225.990319 
L 262.341627 204.597166 
L 265.396072 199.248878 
L 268.441399 199.248878 
L 271.51408 193.90059 
L 274.604996 193.90059 
L 277.732383 188.552302 
L 283.83793 188.552302 
L 286.947082 193.90059 
L 293.06509 183.204014 
L 302.250004 183.204014 
L 305.34092 177.855726 
L 308.410561 177.855726 
L 311.477164 172.507438 
L 317.604593 172.507438 
L 320.689431 167.15915 
L 336.080187 167.15915 
L 339.158947 161.810862 
L 345.340779 161.810862 
L 348.413459 156.462574 
L 357.698365 156.462574 
L 360.758889 151.114286 
L 382.273428 151.114286 
L 385.351579 145.765998 
L 394.612778 145.765998 
L 397.728008 140.41771 
L 410.025113 140.41771 
L 413.067705 135.069421 
L 425.324692 135.069421 
L 428.421687 129.721133 
L 443.760776 129.721133 
L 446.820996 124.372845 
L 471.393019 124.372845 
L 474.502475 119.024557 
L 486.790158 119.024557 
L 489.83275 113.676269 
L 517.547661 113.676269 
L 520.659852 108.327981 
L 529.856315 108.327981 
L 532.974584 119.024557 
L 536.095893 108.327981 
L 539.177995 108.327981 
L 542.241558 113.676269 
L 545.29266 113.676269 
L 548.373851 108.327981 
L 557.63505 108.327981 
L 560.741162 129.721133 
L 563.834814 108.327981 
L 585.397677 108.327981 
L 588.497407 113.676269 
L 594.672553 102.979693 
L 622.39567 102.979693 
L 625.440997 108.327981 
L 628.525531 102.979693 
L 727.043392 102.979693 
L 730.146161 97.631405 
L 733.224312 102.979693 
L 760.878134 102.979693 
L 763.978472 97.631405 
L 779.319689 97.631405 
L 782.385987 102.979693 
L 800.824198 102.979693 
L 803.91785 97.631405 
L 822.369738 97.631405 
L 825.442418 102.979693 
L 831.616045 102.979693 
L 834.715775 97.631405 
L 865.392737 97.631405 
L 868.492771 102.979693 
L 880.773768 102.979693 
L 883.843106 97.631405 
L 905.349439 97.631405 
L 908.431541 102.979693 
L 911.523065 102.979693 
L 914.595746 97.631405 
L 933.093222 97.631405 
L 933.093222 97.631405 
" style="fill:none;stroke:#1f77b4;stroke-linecap:square;stroke-width:2;"/>
   </g>
   <g id="line2d_24">
    <path clip-path="url(#p06e8a374e3)" d="M 173.045455 322.259504 
L 176.090782 300.866352 
L 179.154345 290.169776 
L 182.245261 290.169776 
L 185.354413 284.821488 
L 188.463564 284.821488 
L 191.505852 279.4732 
L 194.584612 279.4732 
L 197.690724 274.124911 
L 200.790758 274.124911 
L 203.860399 268.776623 
L 210.069585 268.776623 
L 213.127069 263.428335 
L 219.284587 263.428335 
L 222.360307 258.080047 
L 228.481355 258.080047 
L 231.578045 252.731759 
L 234.638569 252.731759 
L 237.75076 247.383471 
L 247.032626 247.383471 
L 250.126581 242.035183 
L 256.268903 242.035183 
L 259.362859 236.686895 
L 265.529191 236.686895 
L 268.617068 231.338607 
L 277.905012 231.338607 
L 281.017203 225.990319 
L 290.226127 225.990319 
L 293.265376 220.642031 
L 305.568864 220.642031 
L 308.647623 215.293743 
L 317.987235 215.293743 
L 321.09973 209.945455 
L 333.426923 209.945455 
L 336.508722 204.597166 
L 351.933214 204.597166 
L 354.98158 199.248878 
L 364.278643 199.248878 
L 367.354363 193.90059 
L 388.853401 193.90059 
L 391.953739 188.552302 
L 407.378231 188.552302 
L 410.426902 183.204014 
L 419.596012 183.204014 
L 422.665349 193.90059 
L 425.75657 183.204014 
L 434.965494 183.204014 
L 438.032096 177.855726 
L 447.350433 177.855726 
L 450.420074 199.248878 
L 453.498834 177.855726 
L 468.885639 177.855726 
L 471.93431 172.507438 
L 502.694852 172.507438 
L 505.743218 167.15915 
L 551.966851 167.15915 
L 555.027678 161.810862 
L 598.160699 161.810862 
L 601.224262 156.462574 
L 641.291288 156.462574 
L 644.375518 151.114286 
L 647.493179 156.462574 
L 650.592605 151.114286 
L 653.649786 156.462574 
L 662.88272 156.462574 
L 665.951754 151.114286 
L 730.640343 151.114286 
L 733.727612 145.765998 
L 742.957507 145.765998 
L 746.035962 151.114286 
L 749.132653 145.765998 
L 798.359367 145.765998 
L 801.441166 167.15915 
L 804.48315 145.765998 
L 835.261624 145.765998 
L 838.379589 140.41771 
L 841.482358 145.765998 
L 844.527382 140.41771 
L 859.976796 140.41771 
L 863.033672 145.765998 
L 866.121245 140.41771 
L 869.212161 145.765998 
L 872.285146 140.41771 
L 875.370895 145.765998 
L 878.431419 140.41771 
L 933.954545 140.41771 
L 933.954545 140.41771 
" style="fill:none;stroke:#ff7f0e;stroke-linecap:square;stroke-width:2;"/>
   </g>
   <g id="patch_3">
    <path d="M 135 333.490909 
L 135 86.4 
" style="fill:none;stroke:#000000;stroke-linecap:square;stroke-linejoin:miter;stroke-width:0.8;"/>
   </g>
   <g id="patch_4">
    <path d="M 972 333.490909 
L 972 86.4 
" style="fill:none;stroke:#000000;stroke-linecap:square;stroke-linejoin:miter;stroke-width:0.8;"/>
   </g>
   <g id="patch_5">
    <path d="M 135 333.490909 
L 972 333.490909 
" style="fill:none;stroke:#000000;stroke-linecap:square;stroke-linejoin:miter;stroke-width:0.8;"/>
   </g>
   <g id="patch_6">
    <path d="M 135 86.4 
L 972 86.4 
" style="fill:none;stroke:#000000;stroke-linecap:square;stroke-linejoin:miter;stroke-width:0.8;"/>
   </g>
   <g id="legend_1">
    <g id="patch_7">
     <path d="M 873.184062 326.490909 
L 962.2 326.490909 
Q 965 326.490909 965 323.690909 
L 965 283.992159 
Q 965 281.192159 962.2 281.192159 
L 873.184062 281.192159 
Q 870.384063 281.192159 870.384063 283.992159 
L 870.384063 323.690909 
Q 870.384063 326.490909 873.184062 326.490909 
z
" style="fill:#ffffff;opacity:0.8;stroke:#cccccc;stroke-linejoin:miter;"/>
    </g>
    <g id="line2d_25">
     <path d="M 875.984063 292.529972 
L 903.984063 292.529972 
" style="fill:none;stroke:#1f77b4;stroke-linecap:square;stroke-width:2;"/>
    </g>
    <g id="line2d_26"/>
    <g id="text_14">
     <!-- stock -->
     <defs>
      <path d="M 30.609375 48.390625 
Q 23.390625 48.390625 19.1875 42.75 
Q 14.984375 37.109375 14.984375 27.296875 
Q 14.984375 17.484375 19.15625 11.84375 
Q 23.34375 6.203125 30.609375 6.203125 
Q 37.796875 6.203125 41.984375 11.859375 
Q 46.1875 17.53125 46.1875 27.296875 
Q 46.1875 37.015625 41.984375 42.703125 
Q 37.796875 48.390625 30.609375 48.390625 
z
M 30.609375 56 
Q 42.328125 56 49.015625 48.375 
Q 55.71875 40.765625 55.71875 27.296875 
Q 55.71875 13.875 49.015625 6.21875 
Q 42.328125 -1.421875 30.609375 -1.421875 
Q 18.84375 -1.421875 12.171875 6.21875 
Q 5.515625 13.875 5.515625 27.296875 
Q 5.515625 40.765625 12.171875 48.375 
Q 18.84375 56 30.609375 56 
z
" id="DejaVuSans-111"/>
      <path d="M 9.078125 75.984375 
L 18.109375 75.984375 
L 18.109375 31.109375 
L 44.921875 54.6875 
L 56.390625 54.6875 
L 27.390625 29.109375 
L 57.625 0 
L 45.90625 0 
L 18.109375 26.703125 
L 18.109375 0 
L 9.078125 0 
z
" id="DejaVuSans-107"/>
     </defs>
     <g transform="translate(915.184063 297.429972)scale(0.14 -0.14)">
      <use xlink:href="#DejaVuSans-115"/>
      <use x="52.099609" xlink:href="#DejaVuSans-116"/>
      <use x="91.308594" xlink:href="#DejaVuSans-111"/>
      <use x="152.490234" xlink:href="#DejaVuSans-99"/>
      <use x="207.470703" xlink:href="#DejaVuSans-107"/>
     </g>
    </g>
    <g id="line2d_27">
     <path d="M 875.984063 313.079347 
L 903.984063 313.079347 
" style="fill:none;stroke:#ff7f0e;stroke-linecap:square;stroke-width:2;"/>
    </g>
    <g id="line2d_28"/>
    <g id="text_15">
     <!-- profile -->
     <defs>
      <path d="M 18.109375 8.203125 
L 18.109375 -20.796875 
L 9.078125 -20.796875 
L 9.078125 54.6875 
L 18.109375 54.6875 
L 18.109375 46.390625 
Q 20.953125 51.265625 25.265625 53.625 
Q 29.59375 56 35.59375 56 
Q 45.5625 56 51.78125 48.09375 
Q 58.015625 40.1875 58.015625 27.296875 
Q 58.015625 14.40625 51.78125 6.484375 
Q 45.5625 -1.421875 35.59375 -1.421875 
Q 29.59375 -1.421875 25.265625 0.953125 
Q 20.953125 3.328125 18.109375 8.203125 
z
M 48.6875 27.296875 
Q 48.6875 37.203125 44.609375 42.84375 
Q 40.53125 48.484375 33.40625 48.484375 
Q 26.265625 48.484375 22.1875 42.84375 
Q 18.109375 37.203125 18.109375 27.296875 
Q 18.109375 17.390625 22.1875 11.75 
Q 26.265625 6.109375 33.40625 6.109375 
Q 40.53125 6.109375 44.609375 11.75 
Q 48.6875 17.390625 48.6875 27.296875 
z
" id="DejaVuSans-112"/>
      <path d="M 41.109375 46.296875 
Q 39.59375 47.171875 37.8125 47.578125 
Q 36.03125 48 33.890625 48 
Q 26.265625 48 22.1875 43.046875 
Q 18.109375 38.09375 18.109375 28.8125 
L 18.109375 0 
L 9.078125 0 
L 9.078125 54.6875 
L 18.109375 54.6875 
L 18.109375 46.1875 
Q 20.953125 51.171875 25.484375 53.578125 
Q 30.03125 56 36.53125 56 
Q 37.453125 56 38.578125 55.875 
Q 39.703125 55.765625 41.0625 55.515625 
z
" id="DejaVuSans-114"/>
      <path d="M 37.109375 75.984375 
L 37.109375 68.5 
L 28.515625 68.5 
Q 23.6875 68.5 21.796875 66.546875 
Q 19.921875 64.59375 19.921875 59.515625 
L 19.921875 54.6875 
L 34.71875 54.6875 
L 34.71875 47.703125 
L 19.921875 47.703125 
L 19.921875 0 
L 10.890625 0 
L 10.890625 47.703125 
L 2.296875 47.703125 
L 2.296875 54.6875 
L 10.890625 54.6875 
L 10.890625 58.5 
Q 10.890625 67.625 15.140625 71.796875 
Q 19.390625 75.984375 28.609375 75.984375 
z
" id="DejaVuSans-102"/>
     </defs>
     <g transform="translate(915.184063 317.979347)scale(0.14 -0.14)">
      <use xlink:href="#DejaVuSans-112"/>
      <use x="63.476562" xlink:href="#DejaVuSans-114"/>
      <use x="102.339844" xlink:href="#DejaVuSans-111"/>
      <use x="163.521484" xlink:href="#DejaVuSans-102"/>
      <use x="198.726562" xlink:href="#DejaVuSans-105"/>
      <use x="226.509766" xlink:href="#DejaVuSans-108"/>
      <use x="254.292969" xlink:href="#DejaVuSans-101"/>
     </g>
    </g>
   </g>
  </g>
  <g id="axes_2">
   <g id="patch_8">
    <path d="M 135 630 
L 972 630 
L 972 382.909091 
L 135 382.909091 
z
" style="fill:#ffffff;"/>
   </g>
   <g id="matplotlib.axis_3">
    <g id="xtick_7">
     <g id="line2d_29">
      <path clip-path="url(#pb915f68dc6)" d="M 173.045455 630 
L 173.045455 382.909091 
" style="fill:none;stroke:#b0b0b0;stroke-linecap:square;stroke-width:0.8;"/>
     </g>
     <g id="line2d_30">
      <g>
       <use style="stroke:#000000;stroke-width:0.8;" x="173.045455" xlink:href="#mdebdb8b419" y="630"/>
      </g>
     </g>
     <g id="text_16">
      <!-- 0 -->
      <g transform="translate(169.864205 644.598437)scale(0.1 -0.1)">
       <use xlink:href="#DejaVuSans-48"/>
      </g>
     </g>
    </g>
    <g id="xtick_8">
     <g id="line2d_31">
      <path clip-path="url(#pb915f68dc6)" d="M 325.0079 630 
L 325.0079 382.909091 
" style="fill:none;stroke:#b0b0b0;stroke-linecap:square;stroke-width:0.8;"/>
     </g>
     <g id="line2d_32">
      <g>
       <use style="stroke:#000000;stroke-width:0.8;" x="325.0079" xlink:href="#mdebdb8b419" y="630"/>
      </g>
     </g>
     <g id="text_17">
      <!-- 50 -->
      <g transform="translate(318.6454 644.598437)scale(0.1 -0.1)">
       <use xlink:href="#DejaVuSans-53"/>
       <use x="63.623047" xlink:href="#DejaVuSans-48"/>
      </g>
     </g>
    </g>
    <g id="xtick_9">
     <g id="line2d_33">
      <path clip-path="url(#pb915f68dc6)" d="M 476.970345 630 
L 476.970345 382.909091 
" style="fill:none;stroke:#b0b0b0;stroke-linecap:square;stroke-width:0.8;"/>
     </g>
     <g id="line2d_34">
      <g>
       <use style="stroke:#000000;stroke-width:0.8;" x="476.970345" xlink:href="#mdebdb8b419" y="630"/>
      </g>
     </g>
     <g id="text_18">
      <!-- 100 -->
      <g transform="translate(467.426595 644.598437)scale(0.1 -0.1)">
       <use xlink:href="#DejaVuSans-49"/>
       <use x="63.623047" xlink:href="#DejaVuSans-48"/>
       <use x="127.246094" xlink:href="#DejaVuSans-48"/>
      </g>
     </g>
    </g>
    <g id="xtick_10">
     <g id="line2d_35">
      <path clip-path="url(#pb915f68dc6)" d="M 628.93279 630 
L 628.93279 382.909091 
" style="fill:none;stroke:#b0b0b0;stroke-linecap:square;stroke-width:0.8;"/>
     </g>
     <g id="line2d_36">
      <g>
       <use style="stroke:#000000;stroke-width:0.8;" x="628.93279" xlink:href="#mdebdb8b419" y="630"/>
      </g>
     </g>
     <g id="text_19">
      <!-- 150 -->
      <g transform="translate(619.38904 644.598437)scale(0.1 -0.1)">
       <use xlink:href="#DejaVuSans-49"/>
       <use x="63.623047" xlink:href="#DejaVuSans-53"/>
       <use x="127.246094" xlink:href="#DejaVuSans-48"/>
      </g>
     </g>
    </g>
    <g id="xtick_11">
     <g id="line2d_37">
      <path clip-path="url(#pb915f68dc6)" d="M 780.895235 630 
L 780.895235 382.909091 
" style="fill:none;stroke:#b0b0b0;stroke-linecap:square;stroke-width:0.8;"/>
     </g>
     <g id="line2d_38">
      <g>
       <use style="stroke:#000000;stroke-width:0.8;" x="780.895235" xlink:href="#mdebdb8b419" y="630"/>
      </g>
     </g>
     <g id="text_20">
      <!-- 200 -->
      <g transform="translate(771.351485 644.598437)scale(0.1 -0.1)">
       <use xlink:href="#DejaVuSans-50"/>
       <use x="63.623047" xlink:href="#DejaVuSans-48"/>
       <use x="127.246094" xlink:href="#DejaVuSans-48"/>
      </g>
     </g>
    </g>
    <g id="xtick_12">
     <g id="line2d_39">
      <path clip-path="url(#pb915f68dc6)" d="M 932.857681 630 
L 932.857681 382.909091 
" style="fill:none;stroke:#b0b0b0;stroke-linecap:square;stroke-width:0.8;"/>
     </g>
     <g id="line2d_40">
      <g>
       <use style="stroke:#000000;stroke-width:0.8;" x="932.857681" xlink:href="#mdebdb8b419" y="630"/>
      </g>
     </g>
     <g id="text_21">
      <!-- 250 -->
      <g transform="translate(923.313931 644.598437)scale(0.1 -0.1)">
       <use xlink:href="#DejaVuSans-50"/>
       <use x="63.623047" xlink:href="#DejaVuSans-53"/>
       <use x="127.246094" xlink:href="#DejaVuSans-48"/>
      </g>
     </g>
    </g>
    <g id="text_22">
     <!-- time -->
     <g transform="translate(535.42625 662.835625)scale(0.16 -0.16)">
      <use xlink:href="#DejaVuSans-116"/>
      <use x="39.208984" xlink:href="#DejaVuSans-105"/>
      <use x="66.992188" xlink:href="#DejaVuSans-109"/>
      <use x="164.404297" xlink:href="#DejaVuSans-101"/>
     </g>
    </g>
   </g>
   <g id="matplotlib.axis_4">
    <g id="ytick_6">
     <g id="line2d_41">
      <path clip-path="url(#pb915f68dc6)" d="M 135 618.768595 
L 972 618.768595 
" style="fill:none;stroke:#b0b0b0;stroke-linecap:square;stroke-width:0.8;"/>
     </g>
     <g id="line2d_42">
      <g>
       <use style="stroke:#000000;stroke-width:0.8;" x="135" xlink:href="#m24da366e21" y="618.768595"/>
      </g>
     </g>
     <g id="text_23">
      <!-- 0 -->
      <g transform="translate(121.6375 622.567814)scale(0.1 -0.1)">
       <use xlink:href="#DejaVuSans-48"/>
      </g>
     </g>
    </g>
    <g id="ytick_7">
     <g id="line2d_43">
      <path clip-path="url(#pb915f68dc6)" d="M 135 578.656434 
L 972 578.656434 
" style="fill:none;stroke:#b0b0b0;stroke-linecap:square;stroke-width:0.8;"/>
     </g>
     <g id="line2d_44">
      <g>
       <use style="stroke:#000000;stroke-width:0.8;" x="135" xlink:href="#m24da366e21" y="578.656434"/>
      </g>
     </g>
     <g id="text_24">
      <!-- 10 -->
      <g transform="translate(115.275 582.455653)scale(0.1 -0.1)">
       <use xlink:href="#DejaVuSans-49"/>
       <use x="63.623047" xlink:href="#DejaVuSans-48"/>
      </g>
     </g>
    </g>
    <g id="ytick_8">
     <g id="line2d_45">
      <path clip-path="url(#pb915f68dc6)" d="M 135 538.544274 
L 972 538.544274 
" style="fill:none;stroke:#b0b0b0;stroke-linecap:square;stroke-width:0.8;"/>
     </g>
     <g id="line2d_46">
      <g>
       <use style="stroke:#000000;stroke-width:0.8;" x="135" xlink:href="#m24da366e21" y="538.544274"/>
      </g>
     </g>
     <g id="text_25">
      <!-- 20 -->
      <g transform="translate(115.275 542.343493)scale(0.1 -0.1)">
       <use xlink:href="#DejaVuSans-50"/>
       <use x="63.623047" xlink:href="#DejaVuSans-48"/>
      </g>
     </g>
    </g>
    <g id="ytick_9">
     <g id="line2d_47">
      <path clip-path="url(#pb915f68dc6)" d="M 135 498.432113 
L 972 498.432113 
" style="fill:none;stroke:#b0b0b0;stroke-linecap:square;stroke-width:0.8;"/>
     </g>
     <g id="line2d_48">
      <g>
       <use style="stroke:#000000;stroke-width:0.8;" x="135" xlink:href="#m24da366e21" y="498.432113"/>
      </g>
     </g>
     <g id="text_26">
      <!-- 30 -->
      <g transform="translate(115.275 502.231332)scale(0.1 -0.1)">
       <use xlink:href="#DejaVuSans-51"/>
       <use x="63.623047" xlink:href="#DejaVuSans-48"/>
      </g>
     </g>
    </g>
    <g id="ytick_10">
     <g id="line2d_49">
      <path clip-path="url(#pb915f68dc6)" d="M 135 458.319953 
L 972 458.319953 
" style="fill:none;stroke:#b0b0b0;stroke-linecap:square;stroke-width:0.8;"/>
     </g>
     <g id="line2d_50">
      <g>
       <use style="stroke:#000000;stroke-width:0.8;" x="135" xlink:href="#m24da366e21" y="458.319953"/>
      </g>
     </g>
     <g id="text_27">
      <!-- 40 -->
      <g transform="translate(115.275 462.119172)scale(0.1 -0.1)">
       <use xlink:href="#DejaVuSans-52"/>
       <use x="63.623047" xlink:href="#DejaVuSans-48"/>
      </g>
     </g>
    </g>
    <g id="ytick_11">
     <g id="line2d_51">
      <path clip-path="url(#pb915f68dc6)" d="M 135 418.207792 
L 972 418.207792 
" style="fill:none;stroke:#b0b0b0;stroke-linecap:square;stroke-width:0.8;"/>
     </g>
     <g id="line2d_52">
      <g>
       <use style="stroke:#000000;stroke-width:0.8;" x="135" xlink:href="#m24da366e21" y="418.207792"/>
      </g>
     </g>
     <g id="text_28">
      <!-- 50 -->
      <g transform="translate(115.275 422.007011)scale(0.1 -0.1)">
       <use xlink:href="#DejaVuSans-53"/>
       <use x="63.623047" xlink:href="#DejaVuSans-48"/>
      </g>
     </g>
    </g>
    <g id="text_29">
     <!-- FPS -->
     <defs>
      <path d="M 9.8125 72.90625 
L 51.703125 72.90625 
L 51.703125 64.59375 
L 19.671875 64.59375 
L 19.671875 43.109375 
L 48.578125 43.109375 
L 48.578125 34.8125 
L 19.671875 34.8125 
L 19.671875 0 
L 9.8125 0 
z
" id="DejaVuSans-70"/>
      <path d="M 19.671875 64.796875 
L 19.671875 37.40625 
L 32.078125 37.40625 
Q 38.96875 37.40625 42.71875 40.96875 
Q 46.484375 44.53125 46.484375 51.125 
Q 46.484375 57.671875 42.71875 61.234375 
Q 38.96875 64.796875 32.078125 64.796875 
z
M 9.8125 72.90625 
L 32.078125 72.90625 
Q 44.34375 72.90625 50.609375 67.359375 
Q 56.890625 61.8125 56.890625 51.125 
Q 56.890625 40.328125 50.609375 34.8125 
Q 44.34375 29.296875 32.078125 29.296875 
L 19.671875 29.296875 
L 19.671875 0 
L 9.8125 0 
z
" id="DejaVuSans-80"/>
      <path d="M 53.515625 70.515625 
L 53.515625 60.890625 
Q 47.90625 63.578125 42.921875 64.890625 
Q 37.9375 66.21875 33.296875 66.21875 
Q 25.25 66.21875 20.875 63.09375 
Q 16.5 59.96875 16.5 54.203125 
Q 16.5 49.359375 19.40625 46.890625 
Q 22.3125 44.4375 30.421875 42.921875 
L 36.375 41.703125 
Q 47.40625 39.59375 52.65625 34.296875 
Q 57.90625 29 57.90625 20.125 
Q 57.90625 9.515625 50.796875 4.046875 
Q 43.703125 -1.421875 29.984375 -1.421875 
Q 24.8125 -1.421875 18.96875 -0.25 
Q 13.140625 0.921875 6.890625 3.21875 
L 6.890625 13.375 
Q 12.890625 10.015625 18.65625 8.296875 
Q 24.421875 6.59375 29.984375 6.59375 
Q 38.421875 6.59375 43.015625 9.90625 
Q 47.609375 13.234375 47.609375 19.390625 
Q 47.609375 24.75 44.3125 27.78125 
Q 41.015625 30.8125 33.5 32.328125 
L 27.484375 33.5 
Q 16.453125 35.6875 11.515625 40.375 
Q 6.59375 45.0625 6.59375 53.421875 
Q 6.59375 63.09375 13.40625 68.65625 
Q 20.21875 74.21875 32.171875 74.21875 
Q 37.3125 74.21875 42.625 73.28125 
Q 47.953125 72.359375 53.515625 70.515625 
z
" id="DejaVuSans-83"/>
     </defs>
     <g transform="translate(107.9475 520.958295)rotate(-90)scale(0.16 -0.16)">
      <use xlink:href="#DejaVuSans-70"/>
      <use x="57.519531" xlink:href="#DejaVuSans-80"/>
      <use x="117.822266" xlink:href="#DejaVuSans-83"/>
     </g>
    </g>
   </g>
   <g id="line2d_53">
    <path clip-path="url(#pb915f68dc6)" d="M 173.045455 618.768595 
L 176.13941 618.768595 
L 179.206012 462.331169 
L 182.260457 430.24144 
L 185.330099 458.319953 
L 188.381505 470.353601 
L 191.451146 474.364817 
L 194.545101 474.364817 
L 197.672488 478.376033 
L 200.793797 474.364817 
L 206.954355 474.364817 
L 210.042231 466.342385 
L 213.120991 446.286305 
L 216.190632 414.196576 
L 219.269391 402.162928 
L 222.326876 406.174144 
L 225.408674 430.24144 
L 228.511747 450.297521 
L 231.584428 462.331169 
L 237.769299 470.353601 
L 243.87819 470.353601 
L 246.972145 462.331169 
L 250.06914 446.286305 
L 253.129663 422.219008 
L 256.171951 414.196576 
L 259.232475 418.207792 
L 265.396072 466.342385 
L 268.441399 474.364817 
L 277.732383 474.364817 
L 280.789564 478.376033 
L 283.83793 478.376033 
L 286.947082 474.364817 
L 289.992409 474.364817 
L 293.06509 462.331169 
L 296.156006 438.263872 
L 299.204677 410.18536 
L 302.250004 406.174144 
L 305.34092 414.196576 
L 308.410561 442.275089 
L 311.477164 458.319953 
L 314.537687 466.342385 
L 317.604593 470.353601 
L 323.756033 470.353601 
L 326.859106 466.342385 
L 329.953062 458.319953 
L 336.080187 418.207792 
L 339.158947 414.196576 
L 342.246823 426.230224 
L 345.340779 454.308737 
L 348.413459 470.353601 
L 351.489179 474.364817 
L 357.698365 474.364817 
L 360.758889 478.376033 
L 366.870514 478.376033 
L 373.046268 470.353601 
L 376.116213 454.308737 
L 379.194972 426.230224 
L 382.273428 406.174144 
L 385.351579 406.174144 
L 388.454956 426.230224 
L 391.540097 450.297521 
L 394.612778 462.331169 
L 400.821964 470.353601 
L 406.967629 470.353601 
L 410.025113 466.342385 
L 413.067705 454.308737 
L 416.106954 430.24144 
L 419.179331 414.196576 
L 422.230433 418.207792 
L 425.324692 438.263872 
L 428.421687 462.331169 
L 431.467014 470.353601 
L 434.551852 474.364817 
L 437.648847 474.364817 
L 440.694174 478.376033 
L 449.945344 478.376033 
L 453.018024 474.364817 
L 456.08493 466.342385 
L 459.163993 446.286305 
L 462.215095 414.196576 
L 465.27805 406.174144 
L 468.320035 410.18536 
L 471.393019 438.263872 
L 474.502475 454.308737 
L 480.611365 470.353601 
L 489.83275 470.353601 
L 492.90847 462.331169 
L 495.957141 446.286305 
L 499.057175 422.219008 
L 502.129247 414.196576 
L 505.201928 422.219008 
L 508.274913 450.297521 
L 511.390143 466.342385 
L 514.459784 474.364817 
L 520.659852 474.364817 
L 523.723415 478.376033 
L 529.856315 478.376033 
L 532.974584 474.364817 
L 536.095893 474.364817 
L 539.177995 462.331169 
L 542.241558 434.252656 
L 545.29266 410.18536 
L 548.373851 406.174144 
L 551.471149 422.219008 
L 554.580301 446.286305 
L 557.63505 458.319953 
L 560.741162 466.342385 
L 563.834814 470.353601 
L 570.006617 470.353601 
L 573.097229 466.342385 
L 576.203037 458.319953 
L 582.345663 418.207792 
L 585.397677 418.207792 
L 588.497407 430.24144 
L 591.551548 458.319953 
L 594.672553 470.353601 
L 597.763773 474.364817 
L 600.870189 474.364817 
L 603.915821 478.376033 
L 613.108029 478.376033 
L 619.310832 470.353601 
L 622.39567 450.297521 
L 625.440997 422.219008 
L 628.525531 406.174144 
L 631.613408 410.18536 
L 634.725295 430.24144 
L 637.825025 454.308737 
L 643.933003 470.353601 
L 653.177183 470.353601 
L 656.279952 466.342385 
L 659.364485 450.297521 
L 662.434431 426.230224 
L 665.522916 414.196576 
L 668.592557 418.207792 
L 674.743389 466.342385 
L 677.819109 474.364817 
L 684.028902 474.364817 
L 687.090034 478.376033 
L 696.349105 478.376033 
L 699.397168 474.364817 
L 702.445231 466.342385 
L 705.499676 442.275089 
L 708.563239 414.196576 
L 711.641694 406.174144 
L 714.690061 414.196576 
L 717.753624 442.275089 
L 720.862471 458.319953 
L 723.955819 466.342385 
L 727.043392 470.353601 
L 736.326778 470.353601 
L 739.396419 462.331169 
L 742.438403 442.275089 
L 745.484338 418.207792 
L 748.524195 414.196576 
L 751.614807 426.230224 
L 754.690223 454.308737 
L 757.789953 470.353601 
L 760.878134 474.364817 
L 767.021064 474.364817 
L 770.091313 478.376033 
L 776.216312 478.376033 
L 782.385987 470.353601 
L 785.485717 458.319953 
L 788.531348 426.230224 
L 791.62196 410.18536 
L 794.676102 406.174144 
L 797.773096 426.230224 
L 800.824198 450.297521 
L 803.91785 462.331169 
L 810.068378 470.353601 
L 816.224984 470.353601 
L 819.279125 466.342385 
L 822.369738 454.308737 
L 825.442418 430.24144 
L 828.527864 414.196576 
L 831.616045 418.207792 
L 834.715775 438.263872 
L 837.772955 462.331169 
L 840.836518 474.364817 
L 847.039929 474.364817 
L 850.094982 478.376033 
L 859.278072 478.376033 
L 862.350753 474.364817 
L 865.392737 466.342385 
L 868.492771 446.286305 
L 871.535059 414.196576 
L 874.613515 406.174144 
L 877.710509 410.18536 
L 880.773768 438.263872 
L 883.843106 454.308737 
L 886.912443 466.342385 
L 889.993938 470.353601 
L 899.219578 470.353601 
L 902.273719 462.331169 
L 905.349439 446.286305 
L 908.431541 422.219008 
L 911.523065 414.196576 
L 914.595746 422.219008 
L 917.662044 450.297521 
L 920.728342 466.342385 
L 923.807101 474.364817 
L 930.026012 474.364817 
L 933.093222 478.376033 
L 933.093222 478.376033 
" style="fill:none;stroke:#1f77b4;stroke-linecap:square;stroke-width:2;"/>
   </g>
   <g id="line2d_54">
    <path clip-path="url(#pb915f68dc6)" d="M 173.045455 618.768595 
L 176.090782 618.768595 
L 179.154345 466.342385 
L 182.245261 426.230224 
L 185.354413 454.308737 
L 188.463564 466.342385 
L 194.584612 474.364817 
L 206.960433 474.364817 
L 210.069585 470.353601 
L 213.127069 462.331169 
L 216.202789 442.275089 
L 219.284587 406.174144 
L 222.360307 394.140496 
L 225.439066 398.151712 
L 228.481355 426.230224 
L 231.578045 450.297521 
L 237.75076 466.342385 
L 243.917396 466.342385 
L 247.032626 462.331169 
L 250.126581 442.275089 
L 253.214458 414.196576 
L 256.268903 406.174144 
L 259.362859 410.18536 
L 262.4325 442.275089 
L 265.529191 462.331169 
L 268.617068 470.353601 
L 271.741416 474.364817 
L 287.165604 474.364817 
L 290.226127 470.353601 
L 293.265376 458.319953 
L 296.338057 426.230224 
L 299.408002 398.151712 
L 302.480987 394.140496 
L 305.568864 410.18536 
L 308.647623 438.263872 
L 311.729421 454.308737 
L 314.944947 462.331169 
L 317.987235 466.342385 
L 324.187606 466.342385 
L 327.293719 462.331169 
L 330.360321 454.308737 
L 336.508722 406.174144 
L 339.575628 406.174144 
L 342.630073 422.219008 
L 345.708832 454.308737 
L 348.821023 466.342385 
L 354.98158 474.364817 
L 367.354363 474.364817 
L 373.51492 466.342385 
L 376.609179 446.286305 
L 379.654203 410.18536 
L 382.735697 394.140496 
L 385.801996 398.151712 
L 391.953739 446.286305 
L 395.044959 458.319953 
L 398.102444 466.342385 
L 407.378231 466.342385 
L 410.426902 462.331169 
L 413.481651 446.286305 
L 416.541871 418.207792 
L 419.596012 406.174144 
L 422.665349 410.18536 
L 425.75657 438.263872 
L 428.835329 462.331169 
L 431.920166 470.353601 
L 434.965494 474.364817 
L 450.420074 474.364817 
L 453.498834 470.353601 
L 456.58671 458.319953 
L 459.659695 434.252656 
L 462.704718 402.162928 
L 465.788948 394.140496 
L 468.885639 406.174144 
L 471.93431 434.252656 
L 475.004255 454.308737 
L 478.077239 462.331169 
L 481.171195 466.342385 
L 490.434825 466.342385 
L 493.477418 458.319953 
L 496.562559 438.263872 
L 499.625818 410.18536 
L 502.694852 406.174144 
L 505.743218 418.207792 
L 508.837478 450.297521 
L 511.928394 466.342385 
L 518.09503 474.364817 
L 533.534414 474.364817 
L 536.631409 466.342385 
L 539.680079 450.297521 
L 542.758535 418.207792 
L 545.809637 398.151712 
L 548.860739 398.151712 
L 551.966851 418.207792 
L 555.027678 446.286305 
L 558.09732 458.319953 
L 561.142951 466.342385 
L 570.447612 466.342385 
L 573.529106 462.331169 
L 576.580208 450.297521 
L 579.655928 426.230224 
L 582.728305 406.174144 
L 585.779711 410.18536 
L 588.855431 430.24144 
L 591.964278 458.319953 
L 595.036351 470.353601 
L 598.160699 474.364817 
L 613.616191 474.364817 
L 616.709539 470.353601 
L 619.76368 462.331169 
L 622.851557 438.263872 
L 625.924542 406.174144 
L 629.016066 394.140496 
L 632.061697 402.162928 
L 635.118877 430.24144 
L 638.230764 450.297521 
L 641.291288 462.331169 
L 644.375518 466.342385 
L 653.649786 466.342385 
L 656.719123 458.319953 
L 659.791804 442.275089 
L 662.88272 414.196576 
L 665.951754 406.174144 
L 669.012581 414.196576 
L 672.054565 446.286305 
L 675.123599 466.342385 
L 681.277774 474.364817 
L 696.724149 474.364817 
L 699.84181 470.353601 
L 702.947619 454.308737 
L 706.023339 422.219008 
L 709.081127 398.151712 
L 712.121288 394.140496 
L 715.16935 414.196576 
L 718.260266 442.275089 
L 721.308329 454.308737 
L 724.420216 462.331169 
L 727.525721 466.342385 
L 733.727612 466.342385 
L 736.818528 462.331169 
L 739.903062 454.308737 
L 746.035962 406.174144 
L 749.132653 406.174144 
L 752.232687 426.230224 
L 755.31722 458.319953 
L 758.37744 470.353601 
L 761.419424 474.364817 
L 776.871878 474.364817 
L 783.064955 466.342385 
L 786.140675 442.275089 
L 789.186002 410.18536 
L 792.225859 398.151712 
L 795.29003 398.151712 
L 798.359367 426.230224 
L 801.441166 450.297521 
L 807.558262 466.342385 
L 816.841648 466.342385 
L 819.941682 462.331169 
L 822.998862 446.286305 
L 826.068504 418.207792 
L 829.134802 406.174144 
L 832.210522 410.18536 
L 835.261624 442.275089 
L 838.379589 462.331169 
L 841.482358 470.353601 
L 844.527382 474.364817 
L 859.976796 474.364817 
L 863.033672 470.353601 
L 866.121245 458.319953 
L 872.285146 402.162928 
L 875.370895 394.140496 
L 878.431419 406.174144 
L 881.479786 438.263872 
L 884.582251 454.308737 
L 887.685324 462.331169 
L 890.787789 466.342385 
L 900.098528 466.342385 
L 903.146591 454.308737 
L 906.201036 434.252656 
L 909.291648 410.18536 
L 912.376182 406.174144 
L 915.482295 422.219008 
L 918.524583 450.297521 
L 921.569302 466.342385 
L 927.747791 474.364817 
L 933.954545 474.364817 
L 933.954545 474.364817 
" style="fill:none;stroke:#ff7f0e;stroke-linecap:square;stroke-width:2;"/>
   </g>
   <g id="patch_9">
    <path d="M 135 630 
L 135 382.909091 
" style="fill:none;stroke:#000000;stroke-linecap:square;stroke-linejoin:miter;stroke-width:0.8;"/>
   </g>
   <g id="patch_10">
    <path d="M 972 630 
L 972 382.909091 
" style="fill:none;stroke:#000000;stroke-linecap:square;stroke-linejoin:miter;stroke-width:0.8;"/>
   </g>
   <g id="patch_11">
    <path d="M 135 630 
L 972 630 
" style="fill:none;stroke:#000000;stroke-linecap:square;stroke-linejoin:miter;stroke-width:0.8;"/>
   </g>
   <g id="patch_12">
    <path d="M 135 382.909091 
L 972 382.909091 
" style="fill:none;stroke:#000000;stroke-linecap:square;stroke-linejoin:miter;stroke-width:0.8;"/>
   </g>
   <g id="legend_2">
    <g id="patch_13">
     <path d="M 873.184062 623 
L 962.2 623 
Q 965 623 965 620.2 
L 965 580.50125 
Q 965 577.70125 962.2 577.70125 
L 873.184062 577.70125 
Q 870.384063 577.70125 870.384063 580.50125 
L 870.384063 620.2 
Q 870.384063 623 873.184062 623 
z
" style="fill:#ffffff;opacity:0.8;stroke:#cccccc;stroke-linejoin:miter;"/>
    </g>
    <g id="line2d_55">
     <path d="M 875.984063 589.039062 
L 903.984063 589.039062 
" style="fill:none;stroke:#1f77b4;stroke-linecap:square;stroke-width:2;"/>
    </g>
    <g id="line2d_56"/>
    <g id="text_30">
     <!-- stock -->
     <g transform="translate(915.184063 593.939062)scale(0.14 -0.14)">
      <use xlink:href="#DejaVuSans-115"/>
      <use x="52.099609" xlink:href="#DejaVuSans-116"/>
      <use x="91.308594" xlink:href="#DejaVuSans-111"/>
      <use x="152.490234" xlink:href="#DejaVuSans-99"/>
      <use x="207.470703" xlink:href="#DejaVuSans-107"/>
     </g>
    </g>
    <g id="line2d_57">
     <path d="M 875.984063 609.588437 
L 903.984063 609.588437 
" style="fill:none;stroke:#ff7f0e;stroke-linecap:square;stroke-width:2;"/>
    </g>
    <g id="line2d_58"/>
    <g id="text_31">
     <!-- profile -->
     <g transform="translate(915.184063 614.488437)scale(0.14 -0.14)">
      <use xlink:href="#DejaVuSans-112"/>
      <use x="63.476562" xlink:href="#DejaVuSans-114"/>
      <use x="102.339844" xlink:href="#DejaVuSans-111"/>
      <use x="163.521484" xlink:href="#DejaVuSans-102"/>
      <use x="198.726562" xlink:href="#DejaVuSans-105"/>
      <use x="226.509766" xlink:href="#DejaVuSans-108"/>
      <use x="254.292969" xlink:href="#DejaVuSans-101"/>
     </g>
    </g>
   </g>
  </g>
 </g>
 <defs>
  <clipPath id="p06e8a374e3">
   <rect height="247.090909" width="837" x="135" y="86.4"/>
  </clipPath>
  <clipPath id="pb915f68dc6">
   <rect height="247.090909" width="837" x="135" y="382.909091"/>
  </clipPath>
 </defs>
</svg>
